<svg xmlns="http://www.w3.org/2000/svg" viewBox="0 0 32 32" width="32" height="32" role="img" aria-label="USDT">
  <circle cx="16" cy="16" r="16" fill="#26A17B"/>
  <path fill="#fff" d="M17.92 17.4v-.02c-.11.008-.68.042-1.95.042-1.01 0-1.72-.03-1.97-.042v.003c-3.88-.171-6.78-.847-6.78-1.656 0-.808 2.9-1.484 6.78-1.658v2.638c.255.018.98.06 1.99.06 1.21 0 1.82-.049 1.93-.059v-2.638c3.87.173 6.76.849 6.76 1.656 0 .809-2.89 1.483-6.76 1.655m0-3.583v-2.362h5.4V7.855H8.68v3.6h5.4v2.36c-4.39.202-7.69 1.072-7.69 2.114 0 1.043 3.3 1.912 7.69 2.114v7.568h3.84v-7.57c4.38-.202 7.68-1.07 7.68-2.112 0-1.042-3.3-1.911-7.68-2.113"/>
</svg>
